<svg width="60" height="72" viewBox="0 0 60 72" fill="none" xmlns="http://www.w3.org/2000/svg">
<path fill-rule="evenodd" clip-rule="evenodd" d="M5.07022 50.3682C6.72474 50.3682 8.06599 51.9348 8.06599 53.8673C8.06599 53.8975 8.06563 53.9276 8.065 53.9577V53.9579C8.06438 53.9879 8.06339 54.0177 8.06209 54.0474L8.06203 54.0479C8.06078 54.0772 8.05917 54.1063 8.05729 54.1353L8.05724 54.1366L8.05719 54.1373C8.05526 54.1663 8.05313 54.1952 8.05057 54.224L8.05052 54.2251L8.05042 54.2261C8.04786 54.2552 8.04505 54.2842 8.04192 54.313V54.313L8.04177 54.3143C8.03546 54.372 8.02797 54.4293 8.01932 54.4861L8.01921 54.4867L8.0189 54.4885C8.01463 54.5165 8.0101 54.5443 8.0052 54.572L8.00504 54.5729C8.00015 54.6008 7.99494 54.6286 7.98952 54.6563L7.98926 54.6576L7.98884 54.6598C7.98343 54.687 7.97775 54.7141 7.97186 54.741L7.97155 54.7424C7.96551 54.7696 7.95926 54.7966 7.95274 54.8235L7.95207 54.8264C7.94556 54.8531 7.93878 54.8797 7.93175 54.9061L7.93097 54.9092C7.92383 54.9359 7.91638 54.9626 7.90878 54.989L7.90847 54.99C7.9007 55.0168 7.89268 55.0433 7.8844 55.0697L7.88404 55.071C7.8669 55.1257 7.84861 55.1797 7.82924 55.2331C8.35921 54.6789 9.05922 54.3419 9.82657 54.3419C11.481 54.3419 12.8223 55.9085 12.8223 57.8411C12.8223 58.4677 12.6812 59.0559 12.4342 59.5647C25.5098 65.4765 38.8954 65.4234 52.7291 56.7502C53.6878 57.9736 54.4355 58.9272 54.988 59.705C54.499 58.8466 53.8762 57.848 53.0172 56.7591C52.9259 56.6984 52.8325 56.6379 52.737 56.5774C50.9936 57.5789 49.245 58.5987 47.4908 59.3918C47.2434 58.8828 47.1022 58.8277 47.1022 57.5479C47.1022 56.2681 48.4434 54.0487 50.0979 54.0487C50.8652 54.0487 51.5653 54.3857 52.0953 54.9399C51.9428 54.5203 51.8585 54.0587 51.8585 53.5742C51.8585 51.6417 53.1997 50.0751 54.8542 50.0751C56.2981 50.0751 57.5033 51.268 57.7869 52.8562C60.467 58.0263 60.2762 61.7523 56.3768 62.1461C56.2913 62.0272 56.2052 61.8931 56.1165 61.7453C56.4914 63.0821 55.5902 63.8869 53.6804 65.9018C38.8874 72.5114 23.3288 74.4692 5.99844 65.6609C4.73814 64.9763 3.70788 63.7744 3.53316 62.3312C3.53754 62.3674 3.54228 62.4034 3.54769 62.4393C-0.113959 61.4435 -0.542462 58.3195 2.13764 53.1493C2.14113 53.1296 2.14493 53.11 2.14873 53.0903L2.15149 53.0757C2.1567 53.0492 2.16222 53.0229 2.16795 52.9968C2.16973 52.9888 2.1716 52.9809 2.17337 52.973C2.17749 52.9548 2.1817 52.9366 2.18603 52.9184L2.19358 52.888C2.19754 52.8721 2.20155 52.8562 2.20572 52.8403C2.20853 52.8297 2.21134 52.8191 2.21426 52.8085C2.21843 52.7931 2.2227 52.7778 2.22708 52.7624L2.23619 52.7308C2.24072 52.7154 2.24536 52.7001 2.25005 52.6848L2.25932 52.6548C2.26479 52.6375 2.27047 52.6203 2.27615 52.6031C2.2787 52.5954 2.2812 52.5876 2.2838 52.5799C2.29193 52.556 2.30021 52.5322 2.30876 52.5086L2.3099 52.5053L2.31001 52.505C2.31886 52.4807 2.32793 52.4565 2.3372 52.4324C2.34053 52.4238 2.34402 52.4152 2.34741 52.4065C2.35371 52.3906 2.35996 52.3747 2.36647 52.3589C2.37017 52.3499 2.37398 52.341 2.37773 52.332C2.38403 52.3168 2.39044 52.3018 2.39695 52.2868L2.40924 52.2588C2.4157 52.2444 2.42216 52.23 2.42872 52.2157L2.44195 52.1871C2.44872 52.1727 2.4556 52.1584 2.46253 52.1441L2.47534 52.1178C2.48305 52.1022 2.49087 52.0869 2.49878 52.0715L2.51035 52.0489L5.07022 50.3682ZM10.6259 52.1866C10.6259 52.2169 10.6255 52.2469 10.6249 52.277L10.6259 52.1866ZM10.6259 52.1869C10.6252 52.2168 10.6242 52.2466 10.6229 52.2764L10.6259 52.1869ZM10.3929 53.3727C10.384 53.3972 10.3749 53.4216 10.3655 53.4459C10.3749 53.4216 10.3841 53.3971 10.393 53.3726L10.3929 53.3727ZM10.3646 53.4481C10.3548 53.4734 10.3448 53.4984 10.3346 53.5233C10.3448 53.4984 10.3548 53.4734 10.3646 53.4481ZM10.3342 53.5242C10.3239 53.5492 10.3134 53.574 10.3025 53.5986C10.3134 53.574 10.3239 53.5492 10.3342 53.5242ZM10.3014 53.6012C10.2909 53.6252 10.2801 53.649 10.2691 53.6727C10.2801 53.649 10.2909 53.6252 10.3014 53.6012ZM10.2675 53.6761C10.2564 53.7 10.245 53.7237 10.2335 53.7473C10.245 53.7237 10.2564 53.7 10.2675 53.6761ZM10.2321 53.7502C10.2205 53.7736 10.2087 53.7968 10.1968 53.8199C10.2087 53.7968 10.2205 53.7736 10.2321 53.7502ZM10.1955 53.8222C10.1833 53.8456 10.1709 53.8688 10.1583 53.8919C10.1709 53.8688 10.1833 53.8456 10.1955 53.8222ZM10.1571 53.894C10.1444 53.9171 10.1315 53.9401 10.1184 53.9628C10.1315 53.9401 10.1444 53.9171 10.1571 53.894ZM10.118 53.9635C10.1047 53.9864 10.0913 54.0091 10.0776 54.0315C10.0912 54.0091 10.1047 53.9864 10.118 53.9635ZM10.0765 54.0334C10.063 54.0555 10.0493 54.0775 10.0354 54.0992C10.0493 54.0775 10.063 54.0555 10.0765 54.0334ZM10.0341 54.1013C10.02 54.1231 10.0059 54.1448 9.99144 54.1662C10.0059 54.1448 10.02 54.1231 10.0341 54.1013ZM9.98998 54.1683C9.97571 54.1895 9.96123 54.2105 9.94659 54.2313C9.96123 54.2105 9.97571 54.1895 9.98998 54.1683ZM9.94508 54.2335C9.93039 54.2541 9.9156 54.2747 9.90049 54.295C9.91555 54.2747 9.93039 54.2541 9.94508 54.2335ZM9.89783 54.2987C9.88288 54.3187 9.86778 54.3386 9.85246 54.3583C9.86778 54.3386 9.88288 54.3187 9.89783 54.2987ZM9.8509 54.3604C9.83564 54.38 9.82017 54.3993 9.80459 54.4185C9.82022 54.3993 9.83564 54.38 9.8509 54.3604ZM9.80037 54.4236C9.78485 54.4426 9.76906 54.4615 9.75317 54.4801C9.76906 54.4615 9.78485 54.4426 9.80037 54.4236ZM9.75177 54.4818C9.73541 54.5008 9.7189 54.5196 9.70218 54.5383C9.7189 54.5196 9.73541 54.5008 9.75177 54.4818ZM9.69916 54.5416C9.68291 54.5597 9.66644 54.5776 9.64983 54.5953C9.66644 54.5776 9.68291 54.5597 9.69916 54.5416ZM9.64722 54.5981C9.64207 54.6036 9.6367 54.6089 9.63149 54.6144L9.63134 54.6148L9.64722 54.5981ZM5.10965 50.1219L5.11023 50.1208L5.11283 50.1162C5.12413 50.0956 5.1357 50.0752 5.14737 50.0549C5.15148 50.0477 5.15575 50.0407 5.15987 50.0336C5.16852 50.0189 5.17722 50.0041 5.18602 49.9895C5.19118 49.981 5.19638 49.9727 5.20159 49.9643C5.20951 49.9514 5.21748 49.9385 5.22561 49.9258C5.23129 49.9168 5.23702 49.9079 5.24275 49.899C5.25087 49.8864 5.25916 49.8739 5.26744 49.8615C5.27296 49.8531 5.27848 49.8448 5.28405 49.8366C5.29301 49.8234 5.30208 49.8103 5.31119 49.7973C5.31646 49.7897 5.32167 49.7822 5.32698 49.7746C5.33771 49.7595 5.3486 49.7446 5.35959 49.7297L5.37048 49.7147C5.38527 49.6948 5.40027 49.675 5.41543 49.6555C5.41913 49.6507 5.42293 49.6461 5.42668 49.6413C5.43814 49.6267 5.44971 49.6122 5.46137 49.5978C5.46731 49.5905 5.47341 49.5832 5.4794 49.576C5.48924 49.5641 5.49909 49.5522 5.50909 49.5405C5.5155 49.533 5.52196 49.5255 5.52842 49.5181C5.538 49.507 5.54764 49.4959 5.55743 49.485L5.57769 49.4624C5.58764 49.4515 5.59764 49.4406 5.60775 49.4298C5.61437 49.4227 5.62098 49.4155 5.62765 49.4085C5.63838 49.3972 5.64927 49.386 5.6601 49.3749C5.66625 49.3686 5.67229 49.3623 5.67844 49.3561C5.69084 49.3436 5.70339 49.3313 5.71594 49.3191C5.72084 49.3143 5.72563 49.3095 5.73053 49.3048C5.74808 49.2879 5.76574 49.2713 5.78361 49.2549L5.79194 49.2474C5.80679 49.2338 5.82169 49.2204 5.83674 49.2072C5.84336 49.2014 5.85003 49.1957 5.85669 49.19C5.86836 49.18 5.88008 49.1699 5.89186 49.16C5.8991 49.154 5.90639 49.148 5.91368 49.1421C5.92493 49.1328 5.93624 49.1236 5.94765 49.1145L5.97062 49.0964C5.98208 49.0875 5.99359 49.0787 6.0051 49.0699C6.01276 49.0641 6.02042 49.0583 6.02818 49.0525C6.04026 49.0435 6.0524 49.0347 6.06464 49.0259C6.07162 49.0209 6.0786 49.0157 6.08569 49.0108C6.10173 48.9994 6.11788 48.9883 6.13413 48.9773L6.14403 48.9705C6.16377 48.9573 6.18362 48.9444 6.20362 48.9316C6.20972 48.9277 6.21592 48.924 6.22206 48.9202C6.23602 48.9114 6.24998 48.9028 6.26405 48.8943C6.2716 48.8897 6.27926 48.8853 6.28687 48.8809C6.29973 48.8733 6.3127 48.8657 6.32573 48.8583C6.33416 48.8535 6.3426 48.8488 6.35109 48.8441C6.36302 48.8375 6.375 48.831 6.38704 48.8245L6.41444 48.81C6.42652 48.8037 6.43866 48.7976 6.4508 48.7914C6.45955 48.787 6.46835 48.7826 6.47715 48.7783C6.49096 48.7715 6.50487 48.765 6.51883 48.7584C6.52602 48.755 6.53315 48.7516 6.54039 48.7483C6.55863 48.7399 6.57701 48.7318 6.5954 48.7239L6.60494 48.7196C6.62676 48.7103 6.64869 48.7013 6.67073 48.6926C6.67635 48.6904 6.68198 48.6883 6.6876 48.6861C6.70375 48.6798 6.7199 48.6736 6.7361 48.6677C6.74428 48.6647 6.75251 48.6619 6.76069 48.6589C6.77496 48.6539 6.78929 48.6489 6.80366 48.644C6.81215 48.6412 6.82069 48.6384 6.82924 48.6356C6.84278 48.6312 6.85638 48.6269 6.87003 48.6227C6.87971 48.6197 6.88941 48.6168 6.89915 48.6139C6.91227 48.61 6.9255 48.6063 6.93873 48.6026C6.94806 48.6001 6.95738 48.5974 6.96676 48.5949C6.98129 48.5911 6.99588 48.5874 7.01046 48.5838C7.0188 48.5818 7.02713 48.5796 7.03552 48.5776C7.05427 48.5732 7.07313 48.569 7.09204 48.565L7.1048 48.5622C7.12783 48.5573 7.1509 48.5529 7.17414 48.5487C7.18122 48.5475 7.1883 48.5464 7.19544 48.5451C7.2118 48.5423 7.2281 48.5396 7.24451 48.5371C7.25331 48.5358 7.26217 48.5346 7.27097 48.5334C7.28577 48.5313 7.30061 48.5292 7.31551 48.5274C7.32515 48.5262 7.33489 48.5251 7.34458 48.524C7.35854 48.5225 7.37255 48.521 7.38656 48.5197C7.39677 48.5187 7.40704 48.5178 7.4173 48.5169C7.43136 48.5157 7.44553 48.5147 7.4597 48.5138C7.46949 48.5131 7.47929 48.5124 7.48908 48.5119C7.50533 48.5109 7.52164 48.5103 7.53789 48.5097C7.5456 48.5094 7.55326 48.5091 7.56097 48.5088C7.58524 48.5081 7.60962 48.5077 7.634 48.5077L5.10965 50.1219ZM3.5702 62.0649C3.56536 62.0228 3.56124 61.9804 3.55785 61.9378C3.56124 61.9804 3.56536 62.0228 3.5702 62.0649ZM3.5564 61.919C3.55322 61.876 3.55072 61.8328 3.54905 61.7894C3.55072 61.8328 3.55322 61.876 3.5564 61.919ZM3.54848 61.7714C3.54702 61.7274 3.54629 61.6833 3.54645 61.6389C3.54629 61.6833 3.54702 61.7274 3.54848 61.7714ZM3.5466 61.6231C3.54697 61.5779 3.54806 61.5325 3.55009 61.4869C3.54806 61.5326 3.54697 61.5779 3.5466 61.6231ZM3.55077 61.4746C3.55306 61.4275 3.55614 61.3802 3.5603 61.3328C3.55614 61.3803 3.55306 61.4275 3.55077 61.4746ZM3.56077 61.3283C3.56504 61.2796 3.57035 61.2308 3.57666 61.1818C3.57035 61.2308 3.56504 61.2796 3.56077 61.3283ZM3.57713 61.1779C3.58338 61.13 3.59072 61.0819 3.5989 61.0336C3.59072 61.0819 3.58338 61.13 3.57713 61.1779ZM3.60098 61.0209C3.60906 60.9741 3.61818 60.9272 3.62813 60.8802C3.61818 60.9272 3.60906 60.9741 3.60098 61.0209ZM3.63156 60.8637C3.64146 60.8177 3.6524 60.7715 3.66412 60.7252C3.6524 60.7715 3.64146 60.8177 3.63156 60.8637ZM3.66928 60.7049C3.6811 60.6594 3.69381 60.6137 3.70741 60.568C3.69381 60.6137 3.6811 60.6594 3.66928 60.7049ZM3.71408 60.5456C3.72793 60.4999 3.74267 60.4541 3.75835 60.4081C3.74267 60.4541 3.72793 60.4999 3.71408 60.5456ZM3.7658 60.3865C3.78185 60.3401 3.79883 60.2936 3.8168 60.247C3.79883 60.2936 3.78185 60.3401 3.7658 60.3865ZM3.82461 60.227C3.84305 60.1798 3.86238 60.1325 3.88275 60.0851C3.86238 60.1325 3.84305 60.1798 3.82461 60.227ZM3.89077 60.0668C3.91181 60.0185 3.93374 59.9702 3.95682 59.9217C3.93374 59.9702 3.91181 60.0185 3.89077 60.0668ZM3.96312 59.9087C3.9874 59.8582 4.01256 59.8076 4.03913 59.7569C4.01256 59.8076 3.98735 59.8582 3.96312 59.9087ZM4.04105 59.7532C4.06803 59.7018 4.09622 59.6503 4.1256 59.5986C4.09622 59.6503 4.06803 59.7018 4.04105 59.7532ZM4.12945 59.5917C4.15815 59.5414 4.18821 59.491 4.21926 59.4404C4.18821 59.491 4.15815 59.5414 4.12945 59.5917ZM4.22817 59.4258C4.25838 59.377 4.28984 59.328 4.32229 59.279C4.28984 59.328 4.25838 59.377 4.22817 59.4258ZM4.3349 59.2599C4.36704 59.2117 4.40038 59.1634 4.43471 59.1151C4.40038 59.1634 4.36704 59.2117 4.3349 59.2599ZM4.44976 59.0939C4.48419 59.0459 4.51972 58.9979 4.55629 58.9498C4.51972 58.9979 4.48419 59.0459 4.44976 59.0939ZM4.57275 58.9282C4.60958 58.8802 4.6475 58.8321 4.68652 58.784C4.6475 58.8322 4.60958 58.8802 4.57275 58.9282ZM4.70491 58.7615C4.74423 58.7134 4.7846 58.6653 4.82617 58.6171C4.7846 58.6653 4.74423 58.7134 4.70491 58.7615ZM4.8444 58.5962C4.88707 58.5471 4.93072 58.4981 4.97573 58.449C4.93072 58.4981 4.88707 58.5471 4.8444 58.5962ZM4.99099 58.4325C5.03772 58.3819 5.08548 58.3312 5.13471 58.2805C5.08548 58.3312 5.03772 58.3819 4.99099 58.4325ZM5.14456 58.2704C5.19597 58.2177 5.24858 58.1649 5.30281 58.1121C5.24858 58.1649 5.19597 58.2177 5.14456 58.2704ZM5.30453 58.1105C5.3586 58.0579 5.41418 58.0052 5.47106 57.9526C5.41418 58.0052 5.3586 58.0579 5.30453 58.1105ZM5.48096 57.9433C5.53628 57.8923 5.59311 57.8413 5.65114 57.7903C5.59317 57.8413 5.53628 57.8923 5.48096 57.9433ZM5.66818 57.7751C5.72454 57.7258 5.78236 57.6764 5.84128 57.6271C5.78241 57.6764 5.72454 57.7258 5.66818 57.7751ZM5.86612 57.6063C5.92415 57.5579 5.98354 57.5096 6.04407 57.4613C5.98359 57.5096 5.92415 57.5579 5.86612 57.6063ZM6.07241 57.4388C6.1333 57.3906 6.1955 57.3423 6.25889 57.2941C6.1955 57.3423 6.1333 57.3906 6.07241 57.4388ZM6.28754 57.2724C6.35115 57.2244 6.416 57.1763 6.4821 57.1284C6.416 57.1763 6.35115 57.2244 6.28754 57.2724ZM6.51357 57.1057C6.58066 57.0573 6.64905 57.0089 6.71875 56.9607C6.64905 57.0089 6.58066 57.0573 6.51357 57.1057ZM6.74631 56.9417C6.82028 56.8907 6.8955 56.8398 6.97239 56.7889L6.97301 56.7885C7.05594 56.7337 7.14054 56.679 7.22696 56.6243L6.74631 56.9417ZM6.74631 56.9417C6.812 56.8964 6.87857 56.8512 6.94665 56.806L6.97239 56.7889L6.74631 56.9417ZM52.1347 54.6936C52.3083 55.1713 52.5701 55.5947 52.8963 55.9358C52.7228 55.4581 52.4609 55.0347 52.1347 54.6936Z" fill="#FDD610"/>
<path fill-rule="evenodd" clip-rule="evenodd" d="M54.1798 5.33081C38.3992 4.82767 22.0776 5.12092 6.26135 5.13468L6.57041 43.1453C9.15549 50.5511 19.2979 59.4045 30.5579 62.1873C40.326 59.3096 50.2592 51.5393 53.8742 43.2168L54.1798 5.33081Z" fill="#08812E"/>
<path fill-rule="evenodd" clip-rule="evenodd" d="M49.5104 8.77295C51.5728 8.76889 51.2133 8.68185 51.213 9.34051L51.2364 41.2384C51.2364 42.2967 49.5259 45.2128 49.0224 45.9276C46.8376 49.0296 44.3031 51.4268 41.2351 53.6066C39.0215 55.1792 36.0716 56.9701 33.5628 57.8852C32.6909 58.2032 31.8041 58.4191 30.9684 58.7183C30.4033 58.9206 30.1486 58.7729 29.5453 58.6598C29.0747 58.5715 28.5954 58.5143 28.1436 58.3919C26.3932 57.9178 23.5899 56.653 22.2617 55.7257L19.2688 53.6345C18.6065 53.113 17.9399 52.6999 17.2955 52.1297C16.0238 51.0045 14.9297 50.2548 13.7294 48.8718L11.4142 46.0293C10.8078 45.252 9.29855 42.2575 9.22942 41.3228C9.18984 40.7879 9.22114 40.178 9.2015 39.626C9.16176 38.5059 9.19723 37.3184 9.19723 36.1908C9.19723 31.5876 9.2213 26.9805 9.22088 22.3801C9.22078 20.8911 9.14368 9.06572 9.25839 8.65611L49.5104 8.77295ZM52.6669 7.12746C49.0259 7.01136 45.2607 7.05061 41.5511 7.05061C31.2472 7.05061 20.9191 6.93176 10.6063 6.94125C9.73185 6.94204 8.61855 6.85511 7.77327 6.94373C7.69586 13.2869 7.7792 19.6765 7.77227 26.0256L7.77149 40.3271C7.77071 40.9761 7.72774 42.0134 7.91636 42.5549C8.12358 43.1498 8.3669 43.7732 8.64064 44.2783L9.90984 46.5736C10.0696 46.8556 10.2275 46.9964 10.4264 47.24C11.2034 48.1919 11.6126 48.8379 12.5524 49.8544C13.9732 51.3912 15.7452 52.9605 17.5679 54.3103L21.7313 57.2471C22.1554 57.5474 22.7791 57.8473 23.2322 58.0991C25.5565 59.3907 27.2745 59.9635 30.2176 60.634C30.968 60.8049 31.3163 60.4791 31.9841 60.2264C35.8968 58.7459 36.3155 58.6087 39.9227 56.3453C40.8999 55.7321 41.8505 55.1097 42.7478 54.4387C43.6554 53.76 45.8231 51.9492 46.5867 51.1751C48.8169 48.9139 51.3017 45.9896 52.4294 42.7207C52.7404 41.8191 52.6807 41.6844 52.6807 40.6074L52.6429 16.7716C52.6429 13.5984 52.5518 10.2818 52.6669 7.12746Z" fill="#FDD610"/>
<path d="M30.9311 10.2809L48.4525 41.1729H11.9755C18.0548 30.454 24.1343 19.7352 30.214 9.01648L30.9311 10.2809ZM37.6457 28.4768H31.0447V39.4904H45.5905L37.9006 25.9323L30.214 12.38L14.8375 39.4904H29.3832V28.4768H22.7823V26.7943H29.3832V21.8982H31.0447V26.7943H37.6457V28.4768Z" fill="#FDD610"/>
<path d="M5.07015 49.9476C6.02275 49.9476 6.8822 50.3951 7.50162 51.1187C8.10692 51.8257 8.4813 52.7978 8.4813 53.8673C8.4813 54.9369 8.10692 55.909 7.50162 56.616C6.8822 57.3396 6.02275 57.7871 5.07015 57.7871C4.11766 57.7871 3.25816 57.3396 2.63869 56.616C2.03344 55.909 1.65906 54.9369 1.65906 53.8673C1.65906 52.7978 2.03344 51.8257 2.63869 51.1187C3.25816 50.3951 4.11766 49.9476 5.07015 49.9476ZM6.87533 51.6675C6.41057 51.1247 5.77214 50.7889 5.07015 50.7889C4.36822 50.7889 3.72974 51.1247 3.26498 51.6675C2.78605 52.2269 2.48981 53.0044 2.48981 53.8673C2.48981 54.7303 2.78605 55.5078 3.26498 56.0673C3.72974 56.6101 4.36822 56.9459 5.07015 56.9459C5.77214 56.9459 6.41057 56.6101 6.87533 56.0672C7.3543 55.5078 7.65055 54.7303 7.65055 53.8673C7.65055 53.0044 7.3543 52.2269 6.87533 51.6675Z" fill="#373435"/>
<path d="M2.50427 53.3432C1.20636 55.847 0.658258 57.8357 0.874957 59.2989C1.07785 60.6688 1.99976 61.5834 3.65476 62.0334L3.44056 62.8451C1.43395 62.2994 0.310704 61.154 0.0539979 59.4204C-0.188956 57.7802 0.388736 55.6218 1.77087 52.9554L2.50427 53.3432Z" fill="#373435"/>
<path d="M58.182 52.7175C59.2092 54.7102 59.819 56.5011 59.9652 57.9859C60.0572 58.92 59.9676 59.7403 59.6857 60.4228C59.3929 61.1318 58.899 61.6868 58.1931 62.0621C57.747 62.2992 57.2186 62.4614 56.6052 62.5416C56.023 68.5812 35.4621 71.8555 30.8006 71.982C22.8312 72.1984 14.5441 70.4729 5.81342 66.0355L5.80253 66.0298L5.80206 66.0306C4.97355 65.5805 4.23531 64.9204 3.74018 64.1176C3.48525 63.7043 3.29454 63.2528 3.18828 62.7717C1.33966 62.2003 0.299709 61.0799 0.053994 59.4204C-0.187293 57.7916 0.380918 55.6516 1.74243 53.0107C1.91011 52.1462 2.32679 51.3883 2.90094 50.8438C3.49186 50.2834 4.24667 49.9475 5.07018 49.9475C6.02277 49.9475 6.88223 50.3951 7.50164 51.1187C8.10695 51.8256 8.48132 52.7978 8.48132 53.8673C8.48132 53.9947 8.47596 54.121 8.46549 54.2458C8.5068 54.2252 8.54852 54.2054 8.59061 54.1867C8.97494 54.0152 9.39157 53.9213 9.82653 53.9213C10.7791 53.9213 11.6385 54.3688 12.258 55.0923C12.8632 55.7993 13.2376 56.7714 13.2376 57.841C13.2376 58.1778 13.1994 58.5081 13.1278 58.826C13.0873 59.006 13.036 59.1808 12.975 59.3493C18.4646 61.7823 24.0057 63.1509 29.608 63.2553C35.3389 63.3619 41.1411 62.146 47.0259 59.3945L47.024 59.3909C46.8078 58.9775 46.6868 58.7461 46.6868 57.5478C46.6868 56.7553 47.1311 55.657 47.8327 54.8375C48.4292 54.1409 49.2177 53.6281 50.0979 53.6281C50.5328 53.6281 50.9495 53.722 51.3338 53.8935C51.3759 53.9122 51.4176 53.932 51.4589 53.9526C51.4484 53.8278 51.4431 53.7015 51.4431 53.5742C51.4431 52.5046 51.8175 51.5325 52.4227 50.8255C53.0422 50.1019 53.9017 49.6544 54.8542 49.6544C55.6777 49.6544 56.4325 49.9902 57.0234 50.5506C57.5976 51.0951 58.0142 51.853 58.182 52.7175ZM2.54484 53.2232C2.52599 53.3287 2.51171 53.435 2.50239 53.5417C2.49406 53.6361 2.48984 53.7446 2.48984 53.8673C2.48984 54.7302 2.78608 55.5078 3.26501 56.0672C3.72976 56.61 4.36825 56.9458 5.07018 56.9458C5.3883 56.9458 5.69225 56.8775 5.97183 56.7527L5.98448 56.747L5.98537 56.7466L5.99714 56.7413L5.99886 56.7405L6.0098 56.7354L6.01235 56.7342L6.02236 56.7294L6.02579 56.7278L6.03491 56.7234L6.03918 56.7214L6.04741 56.7174L6.05257 56.7148L6.05991 56.7112L6.0659 56.7082L6.07241 56.705L6.07919 56.7015L6.08481 56.6986L6.09242 56.6947C6.10565 56.6879 6.11883 56.681 6.1319 56.6739L6.13419 56.6727L6.14503 56.6668L6.14644 56.666L6.15805 56.6595L6.15862 56.6592L6.17082 56.6524L6.17107 56.6523L6.18295 56.6455L6.18405 56.6449L6.19509 56.6385L6.19702 56.6374L6.20718 56.6315L6.20988 56.6299L6.2102 56.6297L6.22275 56.6223L6.23124 56.6172L6.23556 56.6146L6.24322 56.6099L6.24833 56.6067L6.25515 56.6026L6.26109 56.5989L6.26322 56.5976L6.27192 56.5921L6.27375 56.591L6.2789 56.5877L6.28641 56.5829L6.29073 56.5802L6.29901 56.5748L6.3025 56.5725L6.31157 56.5666L6.31428 56.5649L6.32412 56.5583L6.326 56.5571L6.33657 56.55L6.33766 56.5492L6.34902 56.5415L6.34928 56.5414L6.3609 56.5334L6.36142 56.533L6.37246 56.5254L6.37376 56.5245L6.38402 56.5173L6.38606 56.5158L6.39548 56.5091L6.39835 56.507L6.40695 56.5009L6.41054 56.4982L6.41835 56.4925L6.42273 56.4893L6.42971 56.4841L6.43487 56.4803L6.44106 56.4757L6.44232 56.4748L6.45195 56.4675L6.45237 56.4672L6.45898 56.4622L6.46357 56.4586L6.47097 56.453L6.47482 56.45L6.48289 56.4437L6.48597 56.4413L6.50821 56.4236L6.51847 56.4154L6.51925 56.4147L6.53025 56.4058L6.54124 56.3967L6.56113 56.38L6.56306 56.3784L6.5652 56.3766L6.5739 56.3691L6.58421 56.3603L6.58494 56.3597L6.60505 56.342L6.60614 56.3411L6.6112 56.3366L6.61682 56.3316L6.6226 56.3264L6.62745 56.322L6.63391 56.3162L6.63807 56.3124L6.64521 56.3058L6.6486 56.3027L6.65641 56.2955L6.65912 56.293L6.66761 56.285L6.66954 56.2832L6.67876 56.2745L6.68001 56.2732C6.69037 56.2634 6.70069 56.2534 6.71095 56.2433C6.80128 56.0109 6.91077 55.7903 7.03715 55.5841C7.16331 55.3784 7.30734 55.1864 7.46695 55.0106C7.52243 54.8454 7.56634 54.6724 7.59744 54.4932C7.63224 54.2922 7.65057 54.0829 7.65057 53.8673C7.65057 53.0044 7.35433 52.2269 6.87535 51.6674C6.41059 51.1246 5.77216 50.7888 5.07018 50.7888C4.46331 50.7888 3.90479 51.0385 3.46556 51.455C3.0045 51.8923 2.67184 52.5118 2.54484 53.2232ZM3.49916 60.0822L3.5039 60.0716L3.51468 60.0482C3.55547 59.9595 3.59943 59.8706 3.64663 59.7814C3.879 59.3427 4.19098 58.8983 4.59313 58.4533L4.59547 58.4507C4.60849 58.4363 4.62162 58.4219 4.63485 58.4075L4.64579 58.3956L4.66465 58.3751L4.66522 58.3745L4.68929 58.3487L4.69174 58.3461L4.71018 58.3264L4.74049 58.2944L4.75138 58.283C4.7644 58.2694 4.77748 58.2558 4.79066 58.2422L4.79139 58.2414C4.94026 58.0876 5.10008 57.9338 5.27125 57.7804L5.26813 57.7806L5.25255 57.7816L5.24942 57.7817L5.2463 57.7819L5.24317 57.7821L5.24005 57.7823L5.23692 57.7825L5.2338 57.7826L5.23239 57.7827L5.23062 57.7828L5.22755 57.783L5.22437 57.7831L5.22124 57.7833L5.21812 57.7834L5.21499 57.7836L5.21223 57.7837H5.21186L5.19619 57.7844L5.19306 57.7846L5.19202 57.7846L5.18993 57.7847L5.18676 57.7848L5.18051 57.7851L5.17738 57.7852L5.1742 57.7853L5.17181 57.7854H5.17108L5.1679 57.7855L5.16478 57.7856L5.16165 57.7857L5.15852 57.7858L5.15535 57.7858L5.15222 57.786L5.15155 57.786L5.14904 57.7861L5.14592 57.7861L5.14279 57.7862L5.13962 57.7863L5.13649 57.7863L5.13331 57.7864L5.13123 57.7865H5.13019L5.12701 57.7865L5.12388 57.7866L5.11758 57.7867L5.1144 57.7867L5.11123 57.7868H5.11091L5.1081 57.7868L5.10497 57.7869L5.09862 57.787L5.09549 57.787H5.09232H5.09055H5.08914L5.08601 57.7871H5.08283H5.07966H5.07653H5.07336H5.07018C4.11769 57.7871 3.25818 57.3395 2.63871 56.616C2.63053 56.6064 2.62241 56.5968 2.61433 56.5872L2.60668 56.5781C2.59959 56.5696 2.59256 56.561 2.58558 56.5524L2.58266 56.5489L2.58214 56.5483L2.58146 56.5475C2.57344 56.5376 2.56542 56.5277 2.55745 56.5177L2.55255 56.5116C2.54505 56.5021 2.53765 56.4927 2.53021 56.4832L2.52796 56.4803L2.52698 56.4791C2.5188 56.4686 2.51072 56.458 2.50265 56.4475L2.49937 56.4431C2.49181 56.4332 2.48431 56.4232 2.47687 56.4132L2.47468 56.4103L2.47322 56.4083L2.45165 56.3789L2.44436 56.3688L2.4268 56.3443L2.42285 56.3388L2.42092 56.3361L2.39998 56.3061L2.3944 56.298C2.37945 56.2763 2.36461 56.2543 2.35002 56.2321L2.34408 56.2231L2.32809 56.1984L2.32189 56.1888C2.31507 56.1782 2.30835 56.1676 2.30163 56.1569L2.29673 56.1491C2.29064 56.1393 2.2846 56.1295 2.27861 56.1196L2.27517 56.1141C2.26824 56.1028 2.26141 56.0914 2.25459 56.08L2.25006 56.0723L2.23386 56.0448L2.22881 56.0361C2.2224 56.025 2.21604 56.0139 2.20974 56.0028L2.20458 55.9936L2.18906 55.9658L2.18474 55.9579C2.17823 55.9461 2.17171 55.9342 2.16536 55.9222L2.16208 55.9161L2.14697 55.8875L2.1415 55.8772C2.13535 55.8654 2.12931 55.8536 2.12327 55.8417L2.12093 55.8371L2.10524 55.8058L2.10019 55.7955L2.08347 55.7612L2.07904 55.752L2.06597 55.7244L2.06107 55.7139C2.05534 55.7017 2.04972 55.6894 2.04414 55.6771L2.04242 55.6733C2.03721 55.6618 2.03206 55.6502 2.0269 55.6386L2.02377 55.6315C2.01851 55.6195 2.01335 55.6076 2.00815 55.5956L2.00226 55.5816L1.99184 55.5568L1.98731 55.546C1.98241 55.534 1.97746 55.522 1.97262 55.51L1.97148 55.5072L1.96934 55.5018L1.95684 55.47L1.95283 55.4598C1.94819 55.4478 1.94355 55.4358 1.93902 55.4238L1.93485 55.4126L1.92511 55.3863L1.91886 55.3691L1.90792 55.3385L1.90673 55.3351L1.90626 55.3339L1.90407 55.3275L1.89303 55.2954L1.88948 55.285C1.88563 55.2737 1.88183 55.2623 1.87807 55.2509L1.87646 55.2461L1.8763 55.2456L1.87417 55.2389L1.86401 55.2072L1.86 55.1945L1.8514 55.1667L1.8451 55.146L1.83687 55.1182L1.83291 55.1046L1.82473 55.0761L1.81931 55.0567L1.81145 55.0279L1.80713 55.0119L1.80114 54.989L1.79389 54.9607L1.7879 54.9368L1.78332 54.9179L1.77801 54.8956L1.77426 54.8798C1.0069 56.6741 0.704615 58.1488 0.874954 59.2989C1.05352 60.5047 1.78936 61.3577 3.09175 61.8516C3.09805 61.2834 3.22448 60.6893 3.49916 60.0822ZM7.12211 57.4121C6.5427 57.7976 6.05335 58.1848 5.64516 58.5701L5.64297 58.5722L5.60859 58.6048L5.59448 58.6183L5.56885 58.643L5.54885 58.6624L5.52691 58.6838L5.50222 58.7082L5.48712 58.7231C5.47321 58.737 5.45935 58.7508 5.44565 58.7647L5.44524 58.7651C4.9724 59.2424 4.62198 59.716 4.37674 60.179C4.34017 60.2481 4.306 60.3168 4.27412 60.3854L4.26547 60.404L4.25974 60.4166C3.94594 61.1065 3.86583 61.7685 3.95813 62.3768L3.95792 62.3768C3.95891 62.3833 3.95969 62.3899 3.96037 62.3965C4.03293 62.8529 4.20301 63.2827 4.44435 63.674C4.86046 64.3487 5.48748 64.907 6.19472 65.2912L6.19436 65.2918C14.7901 69.6586 22.9439 71.3568 30.7811 71.144C34.6687 71.0385 56.3566 67.7304 55.7779 62.1632C55.7696 62.0825 55.7544 61.9991 55.7329 61.9126C55.5712 61.6399 55.4034 61.3284 55.2154 60.9795C55.0426 60.6589 54.8522 60.3056 54.6349 59.9241C54.1376 59.2276 53.4736 58.3759 52.6322 57.3021C44.8248 62.1264 37.1535 64.234 29.595 64.0932C23.7533 63.9844 17.986 62.5327 12.2811 59.9555C12.2757 59.9533 12.2702 59.951 12.2649 59.9486C11.3776 59.5474 10.496 59.1213 9.61994 58.6709C8.81362 58.2565 8.00714 57.8192 7.20055 57.3598L7.18842 57.3678L7.1481 57.3947C7.13966 57.4008 7.13096 57.4066 7.12211 57.4121ZM7.52894 56.584C7.83175 56.757 8.13466 56.9272 8.43772 57.094L8.43799 57.0941C8.54972 57.1556 8.66146 57.2167 8.77324 57.2773L8.78788 57.2852C8.89628 57.344 9.00469 57.4024 9.11314 57.4604L9.13554 57.4723C9.23748 57.5268 9.33948 57.5808 9.44147 57.6346L9.48981 57.66C9.58769 57.7115 9.68563 57.7626 9.78356 57.8135L9.84179 57.8437C9.93483 57.8918 10.0279 57.9397 10.121 57.9873L10.1839 58.0193C10.2804 58.0685 10.3769 58.1174 10.4735 58.166L10.5214 58.19C10.6243 58.2417 10.7272 58.293 10.8302 58.3439L10.8516 58.3545C11.3062 58.5789 11.7611 58.7964 12.2164 59.0064C12.2571 58.8883 12.2918 58.7666 12.3198 58.642C12.3766 58.3899 12.4069 58.1215 12.4069 57.841C12.4069 56.9781 12.1106 56.2006 11.6317 55.6412C11.1669 55.0983 10.5285 54.7625 9.82653 54.7625C9.50841 54.7625 9.20446 54.8309 8.92488 54.9556C8.65395 55.0765 8.4046 55.2498 8.18576 55.465C8.09543 55.6975 7.98588 55.9181 7.85951 56.1242C7.76007 56.2864 7.64953 56.4401 7.52894 56.584ZM55.3384 59.481C55.941 60.3326 56.3216 60.9906 56.4983 61.5747C56.5244 61.6177 56.5503 61.6593 56.5759 61.6993C57.0578 61.6293 57.4684 61.5011 57.8102 61.3194C58.3351 61.0404 58.7022 60.6278 58.9199 60.1008C59.1485 59.5472 59.2192 58.8627 59.141 58.068C59.0418 57.0602 58.7057 55.8873 58.1499 54.5878L58.1494 54.5896L58.1487 54.5929C58.1459 54.6051 58.1429 54.6172 58.14 54.6293L58.1372 54.6408C58.134 54.6537 58.1309 54.6664 58.1276 54.6791L58.1272 54.6808L58.1269 54.6817L58.1254 54.6877L58.1166 54.7211L58.1134 54.7331C58.1101 54.7456 58.1066 54.7581 58.1031 54.7706L58.1026 54.7728L58.1025 54.7729L58.1018 54.7753C58.0981 54.7887 58.0942 54.8021 58.0904 54.8154L58.0887 54.8212C58.0848 54.8344 58.081 54.8476 58.0769 54.8607L58.0762 54.8632L58.076 54.8638C58.0719 54.8773 58.0677 54.8908 58.0635 54.9042L58.0609 54.9125L58.0499 54.9467L58.0481 54.9525L58.0476 54.9539L58.0475 54.9541C58.0433 54.967 58.039 54.9799 58.0346 54.9928L58.0315 55.0019L58.0205 55.034L58.0181 55.0407L58.0173 55.0429C58.0129 55.0557 58.0083 55.0685 58.0036 55.0812L58.0008 55.0889L57.9891 55.1206L57.9855 55.1303C57.9808 55.1426 57.9761 55.1549 57.9713 55.1671L57.9679 55.1762L57.9551 55.2084L57.9529 55.214L57.9515 55.2176C57.9466 55.2296 57.9418 55.2415 57.9368 55.2534L57.9335 55.2613L57.9202 55.2931L57.9167 55.3014C57.9112 55.3142 57.9056 55.3269 57.9 55.3397L57.8983 55.3436C57.8928 55.3562 57.8872 55.3686 57.8816 55.3811L57.8804 55.3837C57.8747 55.3963 57.8689 55.4089 57.863 55.4214L57.8593 55.4293L57.8437 55.4624L57.8415 55.4669C57.8356 55.4792 57.8297 55.4913 57.8237 55.5035L57.8197 55.5115L57.8035 55.5439L57.801 55.5488C57.7948 55.561 57.7885 55.5733 57.7822 55.5855L57.7787 55.592L57.7626 55.6223L57.7586 55.6298C57.7524 55.6415 57.7461 55.6531 57.7397 55.6647L57.7355 55.6722L57.7193 55.7014L57.7147 55.7095C57.7084 55.7205 57.7021 55.7315 57.6958 55.7425L57.6898 55.7527L57.6748 55.7783L57.6695 55.7872L57.6497 55.8202L57.6451 55.8277L57.6274 55.8562L57.6229 55.8634C57.6159 55.8747 57.6088 55.8859 57.6017 55.897L57.5989 55.9013C57.592 55.9119 57.5852 55.9225 57.5783 55.933L57.5755 55.9373C57.5603 55.9603 57.5449 55.9832 57.5294 56.0057L57.5246 56.0125C57.5175 56.0228 57.5104 56.0331 57.5032 56.0433L57.4971 56.0519L57.4787 56.0775L57.4738 56.0842C57.4663 56.0946 57.4587 56.105 57.4511 56.1153L57.4497 56.1171L57.4481 56.1193C57.4406 56.1293 57.4331 56.1393 57.4256 56.1492L57.4214 56.1548C57.4134 56.1652 57.4054 56.1756 57.3974 56.1859L57.3964 56.1872L57.3948 56.1892C57.3872 56.1989 57.3796 56.2086 57.372 56.2182L57.3664 56.2252C57.3584 56.2353 57.3503 56.2452 57.3422 56.2552L57.3417 56.2557C57.3335 56.2658 57.3253 56.2757 57.317 56.2856L57.3102 56.2938C57.3021 56.3035 57.2939 56.3132 57.2857 56.3228C56.6662 57.0464 55.8067 57.4939 54.8542 57.4939L54.8403 57.4939H54.8338L54.8264 57.4938L54.8135 57.4936H54.8126L54.7987 57.4934L54.7932 57.4933L54.7849 57.4931L54.7729 57.4928L54.7711 57.4928L54.7573 57.4923L54.7526 57.4922H54.7522L54.7354 57.4916L54.7324 57.4914L54.7297 57.4913L54.7159 57.4907L54.7122 57.4905L54.6937 57.4896L54.692 57.4895L54.6884 57.4893L54.6746 57.4885L54.6718 57.4884L54.6609 57.4877L54.6517 57.4871L54.6472 57.4868L54.6335 57.4858L54.6317 57.4856L54.6198 57.4847L54.6116 57.4841L54.6062 57.4837L54.5925 57.4825L54.5916 57.4824L54.5883 57.4821L54.5723 57.4806L54.5716 57.4806L54.5653 57.48L54.5517 57.4786H54.5516L54.5381 57.4773L54.5375 57.4772L54.5257 57.4759L54.5245 57.4758L54.5118 57.4744L54.511 57.4742L54.4974 57.4727L54.4919 57.472L54.4839 57.471L54.4721 57.4695L54.4704 57.4693L54.4569 57.4675L54.4523 57.4669L54.4434 57.4657L54.4325 57.4642L54.4299 57.4638L54.4164 57.4618L54.4127 57.4613L54.403 57.4598L54.393 57.4583L54.3896 57.4577L54.3762 57.4556L54.365 57.4538L54.3628 57.4534L54.3537 57.4519L54.3494 57.4511L54.3361 57.4488L54.3341 57.4485L54.3316 57.448L54.3165 57.4453L54.3146 57.445L54.3094 57.444L54.2961 57.4415L54.2951 57.4413L54.2828 57.439L54.2804 57.4385L54.2695 57.4364L54.2563 57.4337L54.2473 57.4319L54.243 57.431L54.2367 57.4297L54.2298 57.4282L54.2259 57.4274L54.2034 57.4224L54.198 57.4212L54.1903 57.4195L54.188 57.419L54.1771 57.4165L54.1639 57.4134L54.1377 57.4071L54.1247 57.4038L54.0985 57.3972L54.0855 57.3937L54.0727 57.3903L54.0723 57.3902L54.0595 57.3867L54.0465 57.3831L54.0445 57.3826L54.0336 57.3795C54.0206 57.3758 54.0077 57.372 53.9948 57.3682C54.5418 58.1351 54.9763 58.8458 55.3384 59.481ZM52.2068 56.3998L52.3958 56.2912C52.2751 56.1472 52.1644 55.9934 52.0649 55.831C51.9385 55.6249 51.8289 55.4043 51.7387 55.1719C51.5198 54.9566 51.2704 54.7833 50.9995 54.6624C50.7199 54.5377 50.416 54.4694 50.0979 54.4694C49.4868 54.4694 48.9112 54.8581 48.4591 55.3863C47.8826 56.0596 47.5175 56.9344 47.5175 57.5478C47.5175 58.3578 47.5748 58.6168 47.6793 58.8443C49.1863 58.1367 50.6985 57.2671 52.2068 56.3998ZM53.2444 55.9801L53.2456 55.9813L53.2548 55.99L53.2568 55.9918L53.2653 55.9998L53.268 56.0023L53.2758 56.0095L53.2792 56.0127L53.2863 56.0192L53.2905 56.023L53.2969 56.0288L53.3018 56.0332L53.3076 56.0384L53.3132 56.0434L53.3182 56.0479L53.3193 56.0489L53.3394 56.0665L53.3402 56.0671L53.3505 56.076L53.3592 56.0834L53.3614 56.0852L53.3633 56.0868L53.3832 56.1035L53.3941 56.1126V56.1126L53.4051 56.1215L53.406 56.1222L53.4162 56.1304L53.4384 56.1481L53.4415 56.1505L53.4496 56.1568L53.4535 56.1598L53.4608 56.1654L53.4655 56.169L53.4721 56.174L53.4724 56.1743L53.4821 56.1816L53.4834 56.1825L53.4896 56.1872L53.4947 56.191L53.5017 56.1961L53.5061 56.1993L53.5138 56.205L53.5174 56.2077L53.5261 56.2138L53.5289 56.2159L53.5383 56.2226L53.5404 56.2241L53.5506 56.2313L53.5519 56.2322L53.563 56.2399L53.5635 56.2402L53.5751 56.2482L53.5754 56.2484L53.5867 56.2561L53.5878 56.2568L53.5984 56.2639L53.6003 56.2652L53.6101 56.2717L53.6128 56.2734L53.6219 56.2794L53.6254 56.2816L53.6337 56.287L53.638 56.2898L53.6455 56.2945L53.6506 56.2978L53.6525 56.2989L53.6612 56.3044L53.6633 56.3057L53.6693 56.3094L53.6761 56.3136L53.6812 56.3167L53.6888 56.3214L53.6931 56.324L53.7016 56.3291L53.7142 56.3365L53.7145 56.3367L53.7172 56.3383L53.7274 56.3443L53.7293 56.3454L53.7403 56.3517L53.7414 56.3523L53.7533 56.3591L53.7536 56.3592L53.7658 56.366L53.7663 56.3664L53.778 56.3728L53.7794 56.3736L53.7902 56.3795L53.7925 56.3807C53.8056 56.3878 53.8187 56.3947 53.832 56.4015L53.8396 56.4055L53.8452 56.4083L53.852 56.4118L53.8585 56.415L53.8645 56.418L53.8718 56.4217L53.877 56.4242L53.8852 56.4282L53.8895 56.4302L53.8986 56.4347L53.902 56.4363L53.912 56.441L53.9146 56.4422L53.9255 56.4473L53.9272 56.4481L53.939 56.4534L53.9399 56.4539L53.9526 56.4596C54.2322 56.5843 54.5361 56.6526 54.8542 56.6526C55.5561 56.6526 56.1946 56.3169 56.6594 55.774C57.1383 55.2146 57.4346 54.437 57.4346 53.5742C57.4346 53.4514 57.4303 53.3429 57.422 53.2486C57.4127 53.1419 57.3984 53.0355 57.3796 52.9301C57.2525 52.2186 56.9199 51.5991 56.4588 51.1618C56.0196 50.7453 55.4611 50.4957 54.8542 50.4957C54.1523 50.4957 53.5138 50.8314 53.049 51.3743C52.5701 51.9337 52.2738 52.7112 52.2738 53.5742C52.2738 53.7897 52.2921 53.999 52.327 54.2001C52.358 54.3792 52.402 54.5522 52.4574 54.7175C52.617 54.8932 52.7611 55.0852 52.8872 55.291C53.0136 55.4971 53.1232 55.7177 53.2134 55.9501C53.2237 55.9602 53.234 55.9702 53.2444 55.9801Z" fill="#08812E"/>
<path d="M6.7229 63.9633L8.31387 60.8028L8.9459 61.1291L8.31929 62.3739L9.54849 63.0085L10.1751 61.7637L10.8071 62.0899L9.21615 65.2504L8.58412 64.9241L9.27964 63.5425L8.05039 62.908L7.35492 64.2896L6.7229 63.9633ZM9.87427 65.5777L11.2658 62.3221L13.6455 63.3652L13.4103 63.9154L11.6817 63.1576L11.3727 63.8806L12.9801 64.5852L12.7449 65.1353L11.1375 64.4308L10.7605 65.3129L12.552 66.0981L12.3168 66.6483L9.87427 65.5777ZM15.9287 67.7979L15.1972 67.5747L15.1375 66.713L13.7923 66.3027L13.2835 66.9909L12.5652 66.7718L14.878 63.7724L15.5955 63.9913L15.9287 67.7979ZM15.0881 66.0718L14.996 64.6725L14.1691 65.7915L15.0881 66.0718ZM17.1277 64.4511L18.381 64.7602C18.6638 64.83 18.8741 64.9048 19.0117 64.9855C19.1963 65.0939 19.3419 65.242 19.447 65.4294C19.5532 65.6162 19.6162 65.829 19.6376 66.068C19.6584 66.306 19.6302 66.5871 19.5526 66.9097C19.4843 67.1937 19.3908 67.429 19.2717 67.6172C19.1265 67.8474 18.9565 68.0205 18.7616 68.1364C18.6144 68.2251 18.4316 68.2769 18.2137 68.2928C18.0506 68.3044 17.8428 68.2787 17.5892 68.2162L16.2987 67.8978L17.1277 64.4511ZM17.6769 65.2036L17.128 67.4853L17.639 67.6114C17.83 67.6585 17.9706 67.6813 18.0605 67.6805C18.179 67.68 18.2825 67.6545 18.3716 67.6051C18.4615 67.5559 18.5475 67.4598 18.6305 67.3171C18.7143 67.1746 18.788 66.9692 18.8521 66.7029C18.9161 66.4365 18.9422 66.227 18.9298 66.0727C18.9182 65.9186 18.8799 65.7918 18.8159 65.6911C18.7519 65.5911 18.6596 65.5106 18.538 65.4509C18.4482 65.4058 18.2631 65.3482 17.9843 65.2794L17.6769 65.2036ZM21.0512 68.9025L21.5334 65.3888L22.2361 65.4877L22.0461 66.8716L23.4127 67.0639L23.6027 65.68L24.3053 65.7789L23.8231 69.2926L23.1204 69.1937L23.3312 67.6577L21.9647 67.4653L21.7538 69.0014L21.0512 68.9025ZM24.5875 69.3144L24.7407 65.7703L27.3313 65.8852L27.3054 66.4842L25.4236 66.4007L25.3896 67.1877L27.1394 67.2653L27.1135 67.8643L25.3636 67.7866L25.3221 68.7469L27.2723 68.8334L27.2465 69.4323L24.5875 69.3144ZM31.0068 69.4408L30.2427 69.4423L29.9388 68.6352L28.5338 68.6377L28.2442 69.4458L27.494 69.4472L28.8478 65.8973L29.5972 65.8959L31.0068 69.4408ZM29.7078 68.0361L29.2187 66.724L28.748 68.0378L29.7078 68.0361ZM31.3829 69.4639L31.0644 65.9311L32.548 65.794C32.9208 65.7596 33.1949 65.7665 33.3695 65.8143C33.5449 65.8618 33.6899 65.9621 33.806 66.1147C33.9222 66.2681 33.99 66.4484 34.0088 66.6573C34.0328 66.9229 33.9762 67.1487 33.8382 67.3356C33.7004 67.5225 33.4811 67.6522 33.1799 67.7256C33.3398 67.8012 33.4738 67.8884 33.5817 67.987C33.6905 68.0856 33.841 68.2648 34.033 68.5241L34.5206 69.1739L33.6785 69.2517L33.1039 68.527C32.8982 68.27 32.7583 68.1088 32.6845 68.0434C32.6115 67.9788 32.5364 67.936 32.4593 67.9166C32.3815 67.8973 32.2617 67.8951 32.0993 67.9101L31.9564 67.9233L32.0894 69.3986L31.3829 69.4639ZM31.9057 67.3608L32.427 67.3126C32.7649 67.2814 32.9738 67.2472 33.0557 67.2106C33.1367 67.1741 33.1988 67.1178 33.2395 67.0427C33.281 66.9675 33.2966 66.8765 33.287 66.7704C33.2763 66.6512 33.236 66.5588 33.1668 66.4905C33.0977 66.4231 33.005 66.3852 32.8896 66.3768C32.8312 66.374 32.6595 66.3857 32.3745 66.412L31.8248 66.4628L31.9057 67.3608ZM35.6948 68.9936L35.3024 66.0726L34.2746 66.2142L34.1948 65.6202L36.9484 65.2408L37.0282 65.8348L36.0053 65.9757L36.3977 68.8968L35.6948 68.9936ZM39.2076 68.4751L38.4293 65.0162L39.121 64.8566L39.4275 66.2189L40.7727 65.9085L40.4662 64.5462L41.1579 64.3866L41.9361 67.8454L41.2445 68.005L40.9042 66.493L39.559 66.8034L39.8993 68.3154L39.2076 68.4751ZM45.6811 66.817L44.9446 67.0226L44.441 66.3256L43.0865 66.7038L43.0179 67.5607L42.2947 67.7626L42.6746 63.9767L43.397 63.7749L45.6811 66.817ZM44.0619 65.8095L43.2479 64.6749L43.1366 66.0679L44.0619 65.8095ZM46.0642 66.743L44.8256 63.4247L45.4678 63.1788L47.6464 64.8864L46.8163 62.6626L47.4296 62.4279L48.6682 65.7462L48.0054 65.9999L45.8632 64.3269L46.6774 66.5082L46.0642 66.743ZM47.9531 62.2336L49.1367 61.714C49.4038 61.5967 49.616 61.5279 49.7738 61.5081C49.9856 61.4818 50.19 61.5108 50.3855 61.596C50.5815 61.6801 50.7585 61.8111 50.918 61.9887C51.0765 62.1657 51.2215 62.4071 51.3519 62.7117C51.4667 62.9799 51.5324 63.2246 51.5496 63.4475C51.571 63.7198 51.5386 63.9617 51.4523 64.1733C51.3878 64.3339 51.2729 64.487 51.1087 64.6328C50.9855 64.7418 50.8045 64.8483 50.5651 64.9534L49.3464 65.4884L47.9531 62.2336ZM48.8395 62.4979L49.7618 64.6526L50.2444 64.4408C50.4247 64.3616 50.5503 64.2939 50.6216 64.2383C50.7158 64.1655 50.7831 64.0818 50.8246 63.9881C50.867 63.8938 50.8783 63.7647 50.8595 63.6002C50.8414 63.4353 50.7778 63.2265 50.6701 62.975C50.5624 62.7234 50.4583 62.5405 50.3565 62.425C50.2553 62.3092 50.1493 62.2316 50.0383 62.1903C49.9276 62.1498 49.806 62.142 49.6735 62.1686C49.575 62.1876 49.3931 62.2548 49.1297 62.3704L48.8395 62.4979Z" fill="#08812E"/>
<path d="M6.42352 4.12313H7.17296V0.934494L7.96709 4.12313H8.7445L9.53869 0.934494V4.12313H10.2881V0.0679436H9.07445L8.35861 2.83182L7.63152 0.0679436H6.42352V4.12313ZM14.7007 4.12313L13.1012 0.0679436H12.2456L10.6852 4.12313H11.5409L11.8708 3.19997H13.476L13.8227 4.12313H14.7007ZM13.2131 2.52032H12.1225L12.665 1.01378L13.2131 2.52032ZM15.3886 4.12313H16.2667L17.0609 1.09307L17.8606 4.12313H18.7163L19.6895 0.0679436H18.8729L18.2577 2.89976L17.5587 0.0679436H16.5967L15.864 2.85445L15.26 0.0679436H14.4323L15.3886 4.12313ZM20.0977 0.0679436V2.23145C20.0977 2.46182 20.1043 2.66191 20.1173 2.83182C20.1304 3.00173 20.1499 3.14522 20.176 3.26227C20.2096 3.4133 20.2842 3.56243 20.3998 3.70966C20.6608 4.0306 21.1082 4.19107 21.742 4.19107C22.3125 4.19107 22.7263 4.04004 22.9836 3.73798C23.0582 3.65116 23.1178 3.54639 23.1626 3.42369C23.2073 3.30094 23.2409 3.1603 23.2632 3.00173C23.2707 2.92619 23.2772 2.82237 23.2828 2.69023C23.2884 2.55809 23.2912 2.39382 23.2912 2.19748V0.0679436H22.4802V2.31079C22.4802 2.63168 22.4691 2.86205 22.4467 3.00173C22.3833 3.33022 22.1391 3.49448 21.714 3.49448C21.2704 3.49448 21.0112 3.31133 20.9367 2.94508C20.9143 2.84316 20.9031 2.61659 20.9031 2.26548V0.0679436H20.0977ZM24.1637 4.12313H26.9824V3.43783H24.969V0.101969H24.1637V4.12313ZM27.5305 4.12313H28.3415V0.0679436H27.5305V4.12313ZM30.4611 2.80349C30.5654 3.73234 31.1172 4.19677 32.1165 4.19677C32.4632 4.19677 32.7522 4.14576 32.9834 4.04384C33.2071 3.95321 33.386 3.80783 33.5203 3.60774C33.6508 3.4076 33.716 3.18673 33.716 2.94508C33.716 2.45422 33.5166 2.09931 33.1176 1.88034C32.9946 1.81614 32.7037 1.72361 32.2451 1.60281C31.8462 1.50084 31.5983 1.40647 31.5013 1.31964C31.4193 1.2479 31.3783 1.16671 31.3783 1.07608C31.3783 0.974167 31.4212 0.889181 31.5069 0.821237C31.6374 0.726812 31.8219 0.679652 32.0606 0.679652C32.2843 0.679652 32.4502 0.721169 32.5584 0.804252C32.6814 0.89488 32.7597 1.04775 32.7932 1.26298L33.6042 1.22901C33.5892 0.806096 33.429 0.487055 33.1232 0.271828C32.8585 0.0906263 32.5062 0 32.0662 0C31.753 0 31.492 0.047212 31.2832 0.141585C31.0781 0.232212 30.9141 0.364356 30.7911 0.538068C30.668 0.707981 30.6065 0.906166 30.6065 1.13273C30.6065 1.44988 30.7295 1.72176 30.9756 1.94828C31.1434 2.10311 31.4472 2.23715 31.8872 2.3504C32.0587 2.39192 32.1986 2.42684 32.3066 2.45517C32.4148 2.4835 32.4912 2.50708 32.536 2.52596C32.7858 2.61284 32.9107 2.75253 32.9107 2.94508C32.9107 3.13387 32.8212 3.27926 32.6422 3.38117C32.5677 3.42274 32.4884 3.45386 32.4045 3.47465C32.3207 3.49538 32.2265 3.50577 32.1221 3.50577C31.6299 3.50577 31.3391 3.24529 31.2496 2.7242L30.4611 2.80349ZM36.9598 2.63358C36.8293 3.20752 36.5329 3.49448 36.0706 3.49448C35.4144 3.49448 35.0862 3.02062 35.0862 2.07288C35.0862 1.15917 35.4199 0.702283 36.0873 0.702283C36.3073 0.702283 36.49 0.762686 36.6354 0.88354C36.7883 1.00434 36.8871 1.17051 36.9318 1.38194L37.7316 1.18369C37.6422 0.862752 37.506 0.615453 37.3234 0.441742C37.0139 0.147229 36.615 0 36.1265 0C35.5262 0 35.0564 0.205783 34.7171 0.617352C34.4077 1.00624 34.2529 1.51028 34.2529 2.12953C34.2529 2.7223 34.4077 3.20752 34.7171 3.58506C35.0452 3.98909 35.5001 4.19107 36.0818 4.19107C36.9468 4.19107 37.5005 3.75497 37.7428 2.88277L36.9598 2.63358ZM38.4363 4.12313H39.2472V2.3504H40.83V4.12313H41.6409V0.0679436H40.83V1.6651H39.2472V0.0679436H38.4363V4.12313ZM42.3065 2.11819C42.3065 2.74499 42.4761 3.24528 42.8154 3.61908C43.1585 4.00042 43.6394 4.19107 44.2584 4.19107C44.8698 4.19107 45.349 3.99663 45.6957 3.60774C46.0275 3.23015 46.1935 2.728 46.1935 2.10121C46.1935 1.46687 46.0257 0.962823 45.6901 0.589024C45.3433 0.19634 44.8624 0 44.2472 0C43.6618 0 43.2013 0.175558 42.8658 0.526726C42.4929 0.915612 42.3065 1.44614 42.3065 2.11819ZM43.1398 2.09556C43.1398 1.69154 43.2237 1.36685 43.3915 1.1214C43.5779 0.841971 43.865 0.702283 44.2528 0.702283C44.6405 0.702283 44.9258 0.840123 45.1085 1.11575C45.2725 1.34981 45.3545 1.67265 45.3545 2.08422C45.3545 2.48824 45.2725 2.81293 45.1085 3.05838C44.9108 3.3491 44.6256 3.49448 44.2528 3.49448C43.8799 3.49448 43.5947 3.351 43.3971 3.06403C43.2256 2.81103 43.1398 2.48825 43.1398 2.09556ZM46.6576 2.11819C46.6576 2.74499 46.8273 3.24528 47.1666 3.61908C47.5096 4.00042 47.9906 4.19107 48.6095 4.19107C49.221 4.19107 49.7001 3.99663 50.0468 3.60774C50.3786 3.23015 50.5446 2.728 50.5446 2.10121C50.5446 1.46687 50.3768 0.962823 50.0412 0.589024C49.6945 0.19634 49.2135 0 48.5983 0C48.013 0 47.5525 0.175558 47.2169 0.526726C46.844 0.915612 46.6576 1.44614 46.6576 2.11819ZM47.491 2.09556C47.491 1.69154 47.5748 1.36685 47.7426 1.1214C47.929 0.841971 48.2161 0.702283 48.6039 0.702283C48.9916 0.702283 49.2769 0.840123 49.4596 1.11575C49.6236 1.34981 49.7057 1.67265 49.7057 2.08422C49.7057 2.48824 49.6236 2.81293 49.4596 3.05838C49.262 3.3491 48.9767 3.49448 48.6039 3.49448C48.2311 3.49448 47.9458 3.351 47.7482 3.06403C47.5767 2.81103 47.491 2.48825 47.491 2.09556ZM51.1989 4.12313H54.0176V3.43783H52.0042V0.101969H51.1989V4.12313Z" fill="#FDD610"/>
</svg>
